<svg xmlns="http://www.w3.org/2000/svg" viewBox="0 0 100 100" width="100" height="100">
  <!-- Background Circle -->
  <circle cx="50" cy="50" r="48" fill="#ba68c8" stroke="#9c27b0" stroke-width="2"/>
  
  <!-- Brain Icon (simplified) -->
  <path d="M 35 40 Q 30 40 30 45 Q 30 50 35 50 L 35 55 Q 35 65 45 65 L 55 65 Q 65 65 65 55 L 65 50 Q 70 50 70 45 Q 70 40 65 40 Q 65 35 60 35 Q 55 35 55 40 L 45 40 Q 45 35 40 35 Q 35 35 35 40 Z" fill="#ffffff"/>
  
  <!-- Music Note overlay -->
  <path d="M 52 45 L 52 58 Q 52 60 50 60 Q 48 60 48 58 Q 48 56 50 56 Q 51 56 52 57 L 52 48 L 57 47 L 57 55 Q 57 57 55 57 Q 53 57 53 55 Q 53 53 55 53 Q 56 53 57 54 L 57 45 Z" fill="#ba68c8"/>
  
  <!-- Package Badge -->
  <circle cx="75" cy="25" r="14" fill="#48bb78" stroke="#ffffff" stroke-width="2"/>
  <text x="75" y="30" font-size="16" text-anchor="middle">📦</text>
</svg>
